<svg width="60" height="60" viewBox="0 0 60 60" fill="none" xmlns="http://www.w3.org/2000/svg">
<path d="M13.1251 9.76927C12.8252 9.76545 12.534 9.66835 12.2918 9.49146C12.0497 9.31458 11.8686 9.06668 11.7738 8.78219C11.679 8.4977 11.6751 8.19074 11.7627 7.90394C11.8503 7.61714 12.025 7.36474 12.2626 7.18177C17.4361 3.52166 23.6665 1.65781 30.0001 1.87552C34.9876 1.87552 42.1501 2.71927 47.8126 6.78802C48.1222 7.01018 48.3315 7.34576 48.3947 7.7216C48.4579 8.09743 48.37 8.48302 48.1501 8.79427C47.9217 9.10223 47.5815 9.30819 47.2028 9.3678C46.824 9.42742 46.437 9.33592 46.1251 9.11302C41.3166 6.05715 35.6935 4.53367 30.0001 4.74427C24.316 4.55116 18.7229 6.20933 14.0626 9.46927C13.7972 9.68048 13.4637 9.7872 13.1251 9.76927Z" fill="#9ED228"/>
<path d="M52.9314 22.9874C52.6996 22.9853 52.4715 22.9281 52.2662 22.8205C52.0608 22.7129 51.8839 22.5581 51.7502 22.3687C48.5064 17.7937 42.7127 11.6999 30.0002 11.6999C25.7734 11.5935 21.5835 12.5096 17.7868 14.3704C13.9902 16.2312 10.6992 18.9815 8.19391 22.3874C7.96892 22.6941 7.63199 22.8997 7.25633 22.9593C6.88067 23.019 6.49663 22.928 6.18766 22.7062C6.02558 22.5934 5.88871 22.4481 5.78574 22.2796C5.68277 22.1111 5.61594 21.9231 5.5895 21.7274C5.56305 21.5317 5.57757 21.3326 5.63212 21.1429C5.68668 20.9531 5.78008 20.7767 5.90641 20.6249C8.68394 16.8727 12.3224 13.8429 16.5153 11.7904C20.7083 9.73801 25.3331 8.7231 30.0002 8.83117C40.5189 8.83117 48.3939 12.7312 54.0752 20.7187C54.2932 21.0322 54.3781 21.4194 54.3114 21.7954C54.2446 22.1714 54.0316 22.5056 53.7189 22.7249C53.4868 22.8857 53.2136 22.9768 52.9314 22.9874Z" fill="#9ED228"/>
<path d="M23.0249 58.1246C22.734 58.1231 22.4502 58.0349 22.2098 57.8712C21.9693 57.7076 21.7831 57.4759 21.6749 57.2059C21.5999 57.0292 21.5619 56.8391 21.5632 56.6472C21.5644 56.4553 21.605 56.2657 21.6822 56.0901C21.7595 55.9145 21.8719 55.7565 22.0126 55.6259C22.1532 55.4954 22.319 55.3949 22.4999 55.3309C30.6937 52.1809 35.6249 45.7309 35.6249 38.0621C35.6809 37.3091 35.5739 36.5529 35.311 35.845C35.0481 35.1371 34.6356 34.4943 34.1017 33.9604C33.5678 33.4264 32.9249 33.0139 32.2171 32.7511C31.5092 32.4882 30.7529 32.3811 29.9999 32.4371C26.5124 32.4371 24.8249 34.3121 24.3749 38.7184C24.1657 40.7792 23.1658 42.6788 21.5854 44.0179C20.0051 45.357 17.9672 46.0315 15.8999 45.8996C14.7882 45.9158 13.6853 45.7002 12.6615 45.2667C11.6377 44.8331 10.7154 44.1911 9.95344 43.3814C9.19144 42.5718 8.60642 41.6123 8.23565 40.5642C7.86488 39.516 7.71648 38.4021 7.79992 37.2934C7.90353 31.4963 10.2959 25.9755 14.455 21.9358C18.6141 17.8962 24.2023 15.6656 29.9999 15.7309C35.9446 15.7308 41.6478 18.0833 45.8636 22.2745C50.0794 26.4657 52.4652 32.155 52.4999 38.0996C52.3676 42.2854 51.4848 46.4134 49.8937 50.2871C49.7409 50.6326 49.4604 50.9056 49.1109 51.0489C48.7614 51.1922 48.37 51.1947 48.0187 51.0559C47.8444 50.9841 47.6861 50.8785 47.5529 50.7451C47.4198 50.6117 47.3144 50.4532 47.2429 50.2789C47.1714 50.1045 47.1352 49.9176 47.1364 49.7292C47.1376 49.5407 47.1762 49.3543 47.2499 49.1809C48.6897 45.6561 49.4959 41.9048 49.6312 38.0996C49.6064 32.9128 47.5259 27.9474 43.846 24.2921C40.166 20.6367 35.1868 18.5896 29.9999 18.5996C27.4901 18.5499 24.9951 18.9958 22.6578 19.9117C20.3206 20.8276 18.1869 22.1956 16.3791 23.9372C14.5712 25.6789 13.1247 27.7601 12.1223 30.0616C11.1199 32.3631 10.5813 34.8397 10.5374 37.3496C10.4606 38.0791 10.5391 38.8166 10.7679 39.5136C10.9966 40.2105 11.3704 40.8511 11.8646 41.3931C12.3588 41.9352 12.9623 42.3664 13.6352 42.6583C14.3081 42.9503 15.0352 43.0965 15.7687 43.0871C16.4439 43.1543 17.1257 43.087 17.7748 42.8892C18.4239 42.6913 19.0274 42.3669 19.5504 41.9345C20.0733 41.5022 20.5055 40.9705 20.8219 40.3702C21.1383 39.77 21.3326 39.1129 21.3937 38.4371C22.0687 32.6059 24.9374 29.6434 29.9437 29.6434C31.0782 29.586 32.2121 29.7685 33.2713 30.1789C34.3305 30.5894 35.2914 31.2185 36.0911 32.0253C36.8908 32.832 37.5114 33.7984 37.9125 34.8612C38.3135 35.924 38.486 37.0594 38.4187 38.1934C38.4187 47.0809 32.7937 54.5434 23.4187 58.1246C23.2879 58.1397 23.1557 58.1397 23.0249 58.1246Z" fill="#9ED228"/>
<path d="M37.0684 56.775C36.7093 56.7692 36.3638 56.6364 36.0934 56.4C35.9596 56.2675 35.8534 56.1098 35.7809 55.936C35.7084 55.7623 35.6711 55.5758 35.6711 55.3875C35.6711 55.1992 35.7084 55.0128 35.7809 54.839C35.8534 54.6652 35.9596 54.5075 36.0934 54.375C40.3117 50.0024 42.6881 44.1756 42.7309 38.1C42.7309 35.175 41.8309 25.6313 30.1684 25.6313C28.469 25.5715 26.7747 25.8508 25.1845 26.4527C23.5942 27.0547 22.1397 27.9674 20.9059 29.1375C19.8019 30.2298 18.9292 31.5331 18.3397 32.9698C17.7502 34.4065 17.456 35.9472 17.4746 37.5C17.4697 37.8797 17.3154 38.2421 17.0452 38.5088C16.775 38.7755 16.4106 38.9251 16.0309 38.925C15.8422 38.9275 15.6549 38.8925 15.4798 38.822C15.3047 38.7515 15.1454 38.6469 15.0111 38.5143C14.8768 38.3818 14.7701 38.2238 14.6974 38.0497C14.6246 37.8756 14.5871 37.6887 14.5871 37.5C14.5579 35.5791 14.9109 33.6716 15.6254 31.8883C16.34 30.1051 17.402 28.4817 18.7496 27.1125C20.2434 25.6788 22.0071 24.5559 23.9383 23.8092C25.8695 23.0625 27.9298 22.7067 29.9996 22.7625C41.3996 22.7625 45.4496 31.0125 45.4496 38.1C45.4251 44.863 42.8079 51.359 38.1371 56.25C38.0082 56.4104 37.8457 56.5405 37.6611 56.6312C37.4764 56.7219 37.2741 56.771 37.0684 56.775Z" fill="#9ED228"/>
<path d="M16.2371 52.0116C15.2597 52.0093 14.2833 51.9529 13.3121 51.8428C13.125 51.8219 12.9438 51.7643 12.7789 51.6734C12.614 51.5824 12.4687 51.4599 12.3512 51.3128C12.2336 51.1656 12.1462 50.9968 12.094 50.8159C12.0417 50.635 12.0256 50.4456 12.0465 50.2584C12.0674 50.0713 12.125 49.8901 12.2159 49.7253C12.3069 49.5604 12.4294 49.415 12.5766 49.2975C12.7237 49.18 12.8925 49.0926 13.0734 49.0403C13.2543 48.988 13.4437 48.9719 13.6309 48.9928C18.2996 49.5178 21.9746 48.6928 24.5809 46.5178C25.7822 45.4435 26.7537 44.1371 27.4368 42.6774C28.12 41.2177 28.5006 39.6348 28.5559 38.0241C28.5651 37.8342 28.6128 37.6482 28.696 37.4773C28.7792 37.3064 28.8962 37.1541 29.0399 37.0297C29.1836 36.9052 29.3511 36.8112 29.5321 36.7533C29.7132 36.6954 29.9041 36.6749 30.0934 36.6928C30.4713 36.7217 30.8234 36.8961 31.0752 37.1795C31.327 37.4628 31.459 37.8328 31.4434 38.2116C31.3644 40.217 30.8781 42.1854 30.0142 43.997C29.1504 45.8085 27.9269 47.4254 26.4184 48.7491C23.5242 51.0195 19.9119 52.177 16.2371 52.0116Z" fill="#9ED228"/>
</svg>
