<svg width="37" height="37" viewBox="0 0 37 37" fill="none" xmlns="http://www.w3.org/2000/svg">
<path d="M16.0332 8.63332C16.0332 7.47052 16.0332 6.88913 16.3944 6.52788C16.7556 6.16666 17.3371 6.16666 18.4998 6.16666C19.6626 6.16666 20.2441 6.16666 20.6053 6.52788C20.9665 6.88913 20.9665 7.47052 20.9665 8.63332V10.2242C21.5408 10.3951 22.0899 10.6241 22.6071 10.9044L23.7326 9.77901C24.5547 8.9568 24.9659 8.54568 25.4768 8.54568C25.9876 8.54568 26.3987 8.9568 27.2209 9.77901C28.0432 10.6012 28.4542 11.0123 28.4542 11.5232C28.4542 12.0341 28.0432 12.4452 27.2209 13.2674L26.0955 14.3929C26.3758 14.9101 26.6048 15.4592 26.7757 16.0333H28.3665C29.5292 16.0333 30.1107 16.0333 30.472 16.3945C30.8332 16.7557 30.8332 17.3373 30.8332 18.5C30.8332 19.6627 30.8332 20.2442 30.472 20.6054C30.1107 20.9667 29.5292 20.9667 28.3665 20.9667H26.7757C26.6048 21.5408 26.3758 22.0899 26.0955 22.6071L27.2209 23.7326C28.0431 24.5549 28.4542 24.9659 28.4542 25.4768C28.4542 25.9877 28.0431 26.3987 27.2209 27.221C26.3987 28.0432 25.9876 28.4544 25.4766 28.4544C24.9659 28.4544 24.5547 28.0432 23.7326 27.221L22.6071 26.0956C22.0898 26.3759 21.5406 26.605 20.9665 26.7758V28.3667C20.9665 29.5294 20.9665 30.1109 20.6053 30.4721C20.2441 30.8333 19.6626 30.8333 18.4998 30.8333C17.3371 30.8333 16.7556 30.8333 16.3944 30.4721C16.0332 30.1109 16.0332 29.5294 16.0332 28.3667V26.7758C15.4591 26.605 14.9099 26.3759 14.3927 26.0956L13.2674 27.221C12.4452 28.0432 12.0341 28.4544 11.5232 28.4544C11.0123 28.4544 10.6012 28.0432 9.779 27.221C8.95678 26.3987 8.54567 25.9877 8.54567 25.4768C8.54567 24.9659 8.95678 24.5549 9.779 23.7326L10.9043 22.6073C10.6239 22.0901 10.3949 21.5409 10.224 20.9667H8.63317C7.47037 20.9667 6.88898 20.9667 6.52773 20.6054C6.1665 20.2442 6.1665 19.6627 6.1665 18.5C6.1665 17.3373 6.1665 16.7557 6.52773 16.3945C6.88898 16.0333 7.47037 16.0333 8.63317 16.0333H10.224C10.3949 15.4592 10.6239 14.91 10.9042 14.3927L9.77894 13.2674C8.95672 12.4452 8.5456 12.0341 8.5456 11.5232C8.5456 11.0123 8.95672 10.6012 9.77894 9.77901C10.6012 8.9568 11.0123 8.54568 11.5231 8.54568C12.034 8.54568 12.4451 8.9568 13.2673 9.77901L14.3927 10.9043C14.9099 10.624 15.4591 10.395 16.0332 10.2242V8.63332Z" stroke="black" stroke-width="2" stroke-linecap="round" stroke-linejoin="round"/>
<path d="M22.1998 18.5C22.1998 20.5435 20.5433 22.2 18.4998 22.2C16.4563 22.2 14.7998 20.5435 14.7998 18.5C14.7998 16.4565 16.4563 14.8 18.4998 14.8C20.5433 14.8 22.1998 16.4565 22.1998 18.5Z" stroke="black" stroke-width="2" stroke-linecap="round" stroke-linejoin="round"/>
</svg>
