<svg width="33" height="33" viewBox="0 0 33 33" fill="none" xmlns="http://www.w3.org/2000/svg">
<circle cx="16.5" cy="16.5" r="16.5" fill="white"/>
<path d="M16.5 24.6173V17.1903L10 13.4268V20.5075C10 20.6102 10.0257 20.7063 10.077 20.796C10.1282 20.8858 10.2051 20.9628 10.3077 21.0268L16.5 24.6173ZM17.5 24.6173L23.6923 21.0268C23.7949 20.9628 23.8718 20.8858 23.923 20.796C23.9743 20.7063 24 20.6102 24 20.5075V13.4268L17.5 17.1903V24.6173ZM17 16.3308L23.425 12.6172L17.3077 9.07675C17.2051 9.01275 17.1025 8.98075 17 8.98075C16.8975 8.98075 16.7949 9.01275 16.6923 9.07675L10.575 12.6172L17 16.3308ZM9.80775 21.9115C9.55508 21.7667 9.35733 21.5698 9.2145 21.321C9.0715 21.0723 9 20.8031 9 20.5133V13.2943C9 13.0044 9.0715 12.7352 9.2145 12.4865C9.35733 12.2377 9.55508 12.0408 9.80775 11.896L16.1923 8.21725C16.4449 8.07242 16.7142 8 17 8C17.2858 8 17.5551 8.07242 17.8077 8.21725L24.1923 11.896C24.4449 12.0408 24.6427 12.2377 24.7855 12.4865C24.9285 12.7352 25 13.0044 25 13.2943V20.5133C25 20.8031 24.9285 21.0723 24.7855 21.321C24.6427 21.5698 24.4449 21.7667 24.1923 21.9115L17.8077 25.5903C17.5551 25.7351 17.2858 25.8075 17 25.8075C16.7142 25.8075 16.4449 25.7351 16.1923 25.5903L9.80775 21.9115Z" fill="black"/>
</svg>
