<svg width="36" height="36" viewBox="0 0 36 36" fill="none" xmlns="http://www.w3.org/2000/svg">
<circle cx="18.5" cy="17.5" r="16.5" fill="white"/>
<path d="M18.36 18.5992C15.8776 18.5992 13.4968 19.5853 11.7415 21.3407C9.98614 23.096 9 25.4768 9 27.9592C9 28.1501 9.07586 28.3333 9.21088 28.4683C9.34591 28.6033 9.52904 28.6792 9.72 28.6792C9.91096 28.6792 10.0941 28.6033 10.2291 28.4683C10.3641 28.3333 10.44 28.1501 10.44 27.9592C10.44 25.8587 11.2744 23.8442 12.7597 22.3589C14.245 20.8736 16.2595 20.0392 18.36 20.0392C20.4605 20.0392 22.475 20.8736 23.9603 22.3589C25.4456 23.8442 26.28 25.8587 26.28 27.9592C26.28 28.1501 26.3559 28.3333 26.4909 28.4683C26.6259 28.6033 26.809 28.6792 27 28.6792C27.191 28.6792 27.3741 28.6033 27.5091 28.4683C27.6441 28.3333 27.72 28.1501 27.72 27.9592C27.72 26.73 27.4779 25.5129 27.0075 24.3773C26.5371 23.2417 25.8477 22.2098 24.9785 21.3407C24.1094 20.4715 23.0775 19.7821 21.9419 19.3117C20.8063 18.8413 19.5892 18.5992 18.36 18.5992Z" fill="black"/>
<path d="M18.3596 17.3752C19.0222 17.3575 19.6747 17.2093 20.2799 16.939C20.8851 16.6688 21.4311 16.2818 21.8865 15.8003C22.342 15.3187 22.698 14.7521 22.9341 14.1328C23.1703 13.5135 23.282 12.8537 23.2628 12.1912C23.283 11.5281 23.172 10.8675 22.9363 10.2474C22.7005 9.62726 22.3447 9.05977 21.8892 8.57747C21.4336 8.09518 20.8873 7.70756 20.2817 7.43686C19.676 7.16616 19.0228 7.0177 18.3596 7C17.6964 7.0177 17.0433 7.16616 16.4376 7.43686C15.8319 7.70756 15.2856 8.09518 14.8301 8.57747C14.3746 9.05977 14.0187 9.62726 13.783 10.2474C13.5473 10.8675 13.4363 11.5281 13.4564 12.1912C13.4373 12.8537 13.5489 13.5135 13.7851 14.1328C14.0213 14.7521 14.3773 15.3187 14.8327 15.8003C15.2882 16.2818 15.8341 16.6688 16.4393 16.939C17.0445 17.2093 17.6971 17.3575 18.3596 17.3752ZM18.3596 8.44C18.8338 8.4576 19.2997 8.56874 19.7308 8.76705C20.1618 8.96535 20.5494 9.2469 20.8712 9.5955C21.193 9.94411 21.4428 10.3529 21.6061 10.7984C21.7694 11.2438 21.8431 11.7172 21.8228 12.1912C21.8421 12.6646 21.7677 13.1372 21.604 13.5818C21.4402 14.0265 21.1903 14.4344 20.8686 14.7822C20.5468 15.1301 20.1596 15.411 19.729 15.6088C19.2985 15.8067 18.8331 15.9176 18.3596 15.9352C17.8861 15.9176 17.4208 15.8067 16.9902 15.6088C16.5597 15.411 16.1724 15.1301 15.8507 14.7822C15.5289 14.4344 15.279 14.0265 15.1153 13.5818C14.9515 13.1372 14.8771 12.6646 14.8964 12.1912C14.8762 11.7172 14.9498 11.2438 15.1131 10.7984C15.2764 10.3529 15.5262 9.94411 15.848 9.5955C16.1699 9.2469 16.5575 8.96535 16.9885 8.76705C17.4195 8.56874 17.8855 8.4576 18.3596 8.44Z" fill="black"/>
</svg>
